<svg width="120" height="120" viewBox="0 0 120 120" fill="none" xmlns="http://www.w3.org/2000/svg">
<g clip-path="url(#clip0_198_1954)">
<path d="M120 60C120 26.8629 93.1371 0 60 0C26.8629 0 0 26.8629 0 60C0 93.1371 26.8629 120 60 120C93.1371 120 120 93.1371 120 60Z" fill="#80FFDB"/>
<path d="M24.7962 33.9332L23.5159 33.0463L24.3877 31.7788L23.6807 31.2891L22.8089 32.5567L21.5286 31.6698L21.0195 32.4098L22.2999 33.2967L21.4281 34.5643L22.135 35.0539L23.0069 33.7864L24.2872 34.6733L24.7962 33.9332Z" fill="black"/>
<path d="M30.9794 26.1988L29.9487 25.0311L31.0984 24.009L30.5292 23.3643L29.3795 24.3864L28.3487 23.2188L27.6776 23.8155L28.7083 24.9832L27.5586 26.0054L28.1276 26.6502L29.2773 25.6279L30.3081 26.7955L30.9794 26.1988Z" fill="black"/>
<path d="M38.8309 20.163L38.1091 18.7829L39.4703 18.0659L39.0717 17.3038L37.7105 18.0208L36.9887 16.6406L36.194 17.0592L36.9159 18.4394L35.5547 19.1563L35.9532 19.9183L37.3144 19.2014L38.0361 20.5816L38.8309 20.163Z" fill="black"/>
<path d="M60.3184 58.1684L46.3008 49.8516V66.374L60.3184 74.6908V58.1684Z" fill="#80FFDB"/>
<path d="M56.3789 19.84V11.5938H59.1653C59.8121 11.5938 60.341 11.7105 60.7516 11.9441C61.165 12.1749 61.4711 12.4877 61.6697 12.8823C61.8684 13.2769 61.9677 13.7171 61.9677 14.2029C61.9677 14.6888 61.8684 15.1303 61.6697 15.5277C61.4737 15.9249 61.1704 16.2417 60.7598 16.4779C60.349 16.7114 59.8229 16.8282 59.1813 16.8282H57.1842V15.9424H59.1491C59.5921 15.9424 59.9477 15.8658 60.2162 15.7129C60.4846 15.5599 60.6792 15.3532 60.8 15.0928C60.9235 14.8297 60.9852 14.5331 60.9852 14.2029C60.9852 13.8728 60.9235 13.5775 60.8 13.3171C60.6792 13.0567 60.4832 12.8527 60.2121 12.7051C59.941 12.5548 59.5813 12.4796 59.1331 12.4796H57.3775V19.84H56.3789Z" fill="black"/>
<path d="M72.3767 17.2719C72.1987 18.1232 71.8914 18.8268 71.4544 19.3827C71.0174 19.9386 70.4958 20.3286 69.8894 20.5531C69.2832 20.7774 68.6358 20.8176 67.9474 20.6738C67.259 20.53 66.6819 20.234 66.2161 19.7856C65.7503 19.3373 65.4285 18.771 65.2506 18.0866C65.0727 17.4023 65.0727 16.6344 65.2505 15.7831C65.4285 14.9318 65.7358 14.2282 66.1728 13.6722C66.6099 13.1164 67.1314 12.7263 67.7378 12.5019C68.344 12.2776 68.9914 12.2373 69.6799 12.3811C70.3682 12.525 70.9454 12.821 71.4111 13.2693C71.8769 13.7177 72.1987 14.2839 72.3766 14.9683C72.5545 15.6526 72.5545 16.4205 72.3767 17.2719ZM71.4307 17.0742C71.5767 16.3753 71.583 15.761 71.4496 15.2313C71.3189 14.7021 71.0808 14.2726 70.7357 13.9427C70.3932 13.6134 69.9775 13.3977 69.4888 13.2955C69 13.1935 68.5316 13.2245 68.0831 13.3886C67.6374 13.5532 67.2474 13.8515 66.9131 14.2835C66.5814 14.716 66.3425 15.2818 66.1966 15.9808C66.0505 16.6797 66.0429 17.2937 66.1737 17.8229C66.307 18.3526 66.545 18.7822 66.8876 19.1114C67.2327 19.4413 67.6497 19.6573 68.1384 19.7594C68.6272 19.8615 69.0944 19.8302 69.5401 19.6656C69.9885 19.5015 70.3785 19.2032 70.7102 18.7706C71.0445 18.3386 71.2847 17.7731 71.4307 17.0742Z" fill="black"/>
<path d="M72.6289 21.529L72.919 20.8648L79.6491 16.5638L75.5313 14.7649L75.8859 13.9531L81.0958 16.2293L80.8057 16.8934L74.0756 21.1944L78.1934 22.9934L77.8387 23.8051L72.6289 21.529Z" fill="black"/>
<path d="M88.5718 25.6869C88.068 26.3957 87.5046 26.9175 86.8816 27.2519C86.2586 27.5864 85.6244 27.735 84.9791 27.6979C84.3336 27.6607 83.7243 27.4385 83.151 27.0311C82.5778 26.6236 82.1675 26.1213 81.9201 25.524C81.6728 24.9267 81.6046 24.2789 81.7156 23.5806C81.8266 22.8823 82.1339 22.1786 82.6378 21.4698C83.1416 20.7608 83.705 20.2391 84.328 19.9047C84.9509 19.5702 85.5851 19.4216 86.2306 19.4587C86.8759 19.4958 87.4853 19.7182 88.0585 20.1255C88.6318 20.5329 89.0422 21.0352 89.2894 21.6326C89.5368 22.2298 89.6049 22.8777 89.494 23.5759C89.383 24.2743 89.0756 24.9779 88.5718 25.6869ZM87.7841 25.127C88.1977 24.545 88.4494 23.9846 88.5393 23.4458C88.6313 22.9086 88.5852 22.4197 88.401 21.9792C88.2189 21.5403 87.9244 21.1762 87.5174 20.887C87.1104 20.5977 86.6687 20.4385 86.1921 20.4094C85.7177 20.3818 85.2409 20.4991 84.7616 20.7611C84.2845 21.0247 83.8391 21.4475 83.4255 22.0295C83.0118 22.6116 82.7591 23.1712 82.667 23.7085C82.5772 24.2473 82.6233 24.7361 82.8054 25.175C82.9896 25.6155 83.2852 25.9804 83.6921 26.2696C84.0992 26.5588 84.5398 26.7173 85.0142 26.7448C85.4908 26.774 85.9676 26.6567 86.4448 26.3931C86.924 26.1311 87.3705 25.7091 87.7841 25.127Z" fill="black"/>
<path d="M93.5678 24.5337L90.1378 31.0464L90.2034 31.1174L96.9601 28.1971L97.6716 28.9652L89.5636 32.3464L88.8633 31.5901L92.8565 23.7656L93.5678 24.5337Z" fill="black"/>
<path d="M100.504 32.645L93.4362 36.8922L92.9219 36.0362L99.9903 31.7891L100.504 32.645Z" fill="black"/>
<path d="M103.984 40.3694L104.821 40.0781L106.855 45.9187L106.018 46.21L105.166 43.7613L98.2146 46.1819L97.8867 45.2388L104.837 42.8182L103.984 40.3694Z" fill="black"/>
<path d="M99.8867 51.1012L108.064 50.0391L108.705 54.9744L107.827 55.0884L107.314 51.1434L104.551 51.5023L105.03 55.1918L104.152 55.3058L103.673 51.6164L100.893 51.9773L101.414 55.9862L100.536 56.1003L99.8867 51.1012Z" fill="black"/>
<path d="M106.329 76.2831L98.4102 73.9825L98.6804 73.0546L106.152 70.5458L106.173 70.4684L99.956 68.6621L100.235 67.7031L108.154 70.0038L107.884 70.9318L100.393 73.4515L100.371 73.5289L106.603 75.3398L106.329 76.2831Z" fill="black"/>
<path d="M97.7057 76.0024L98.198 75.0781L104.057 81.6229L103.573 82.533L94.8711 81.3352L95.3624 80.4108L102.648 81.494L102.679 81.4371L97.7057 76.0024ZM100.368 77.856L98.3879 81.5818L97.6056 81.1659L99.587 77.4401L100.368 77.856Z" fill="black"/>
<path d="M95.7711 90.4693C96.1159 90.6934 96.4844 90.7455 96.8775 90.6259C97.2706 90.5063 97.6268 90.2546 97.9462 89.871C98.1805 89.5906 98.3393 89.3073 98.4243 89.0214C98.5065 88.7375 98.5178 88.4706 98.4564 88.2208C98.394 87.9729 98.2618 87.7649 98.0596 87.5965C97.8904 87.4556 97.7118 87.3746 97.5229 87.3537C97.3348 87.3366 97.1468 87.3584 96.9597 87.4193C96.7755 87.4818 96.5988 87.5617 96.4306 87.6591C96.2643 87.758 96.1159 87.8534 95.9874 87.9452L95.2778 88.4443C95.0974 88.5732 94.8848 88.7069 94.64 88.8455C94.3934 88.9861 94.127 89.0941 93.8403 89.1698C93.554 89.2492 93.2581 89.2647 92.9526 89.2163C92.647 89.1678 92.3458 89.0199 92.0488 88.7725C91.7065 88.4872 91.4718 88.1398 91.3449 87.7301C91.2164 87.3225 91.2132 86.8797 91.3355 86.4016C91.4562 85.9256 91.7192 85.4442 92.1247 84.9575C92.5027 84.5038 92.9032 84.1719 93.3263 83.9618C93.7477 83.7539 94.1684 83.6642 94.5881 83.6926C95.0067 83.7232 95.3997 83.8705 95.7663 84.1344L95.1068 84.9263C94.8498 84.7476 94.5852 84.663 94.3116 84.6727C94.0383 84.6862 93.7734 84.7693 93.5167 84.9223C93.2602 85.0791 93.0272 85.2832 92.8176 85.5349C92.5737 85.8277 92.402 86.1301 92.3027 86.4422C92.2055 86.756 92.1857 87.0523 92.2435 87.331C92.3033 87.6114 92.4488 87.8479 92.6797 88.0404C92.8901 88.2156 93.1102 88.2995 93.3402 88.2918C93.5701 88.2843 93.8062 88.219 94.0484 88.0959C94.2908 87.9729 94.5361 87.8257 94.7827 87.6545L95.6548 87.0606C96.2104 86.6841 96.7396 86.4616 97.2441 86.3928C97.7487 86.324 98.2145 86.4675 98.6416 86.8231C98.9959 87.1187 99.2255 87.4723 99.3295 87.884C99.4344 88.2995 99.424 88.7312 99.2993 89.1791C99.1745 89.6306 98.943 90.0586 98.6067 90.4628C98.2665 90.8712 97.8904 91.1732 97.4794 91.3688C97.0703 91.566 96.663 91.6527 96.2567 91.6287C95.8485 91.6067 95.481 91.4678 95.1522 91.2117L95.7711 90.4693Z" fill="black"/>
<path d="M81.9679 94.5781L85.6603 101.951L83.1688 103.199C82.5904 103.488 82.0653 103.621 81.5934 103.596C81.1205 103.574 80.7068 103.433 80.3525 103.168C79.9983 102.904 79.7123 102.555 79.4947 102.121C79.2772 101.686 79.1683 101.247 79.168 100.803C79.1654 100.36 79.2947 99.9413 79.5562 99.5454C79.8188 99.1532 80.237 98.8131 80.8107 98.5258L82.5964 97.632L82.9931 98.4238L81.2361 99.3035C80.8401 99.5019 80.5563 99.7296 80.3848 99.9866C80.2133 100.244 80.1318 100.516 80.1404 100.802C80.1478 101.093 80.2254 101.386 80.3732 101.681C80.5211 101.977 80.7084 102.213 80.9355 102.39C81.1601 102.569 81.4267 102.663 81.7352 102.674C82.0449 102.687 82.4002 102.594 82.801 102.392L84.3707 101.606L81.0751 95.0251L81.9679 94.5781Z" fill="black"/>
<path d="M68.8127 104.046C68.5906 103.205 68.5504 102.438 68.6923 101.746C68.834 101.053 69.1258 100.471 69.5674 99.9984C70.0092 99.526 70.5699 99.201 71.2499 99.0205C71.9298 98.841 72.5785 98.8476 73.1957 99.0403C73.8129 99.2321 74.3542 99.594 74.8196 100.127C75.2851 100.659 75.6289 101.346 75.8511 102.187C76.0733 103.028 76.1135 103.794 75.9716 104.487C75.8298 105.179 75.538 105.762 75.0964 106.234C74.6548 106.706 74.0939 107.032 73.4139 107.212C72.734 107.391 72.0854 107.385 71.4682 107.193C70.851 107 70.3096 106.638 69.8442 106.106C69.3787 105.573 69.0349 104.887 68.8127 104.046ZM69.747 103.799C69.9294 104.489 70.1989 105.041 70.5553 105.455C70.9092 105.87 71.3143 106.148 71.7706 106.289C72.2244 106.429 72.6926 106.436 73.1754 106.308C73.6581 106.181 74.0632 105.944 74.3906 105.596C74.7154 105.249 74.9306 104.808 75.036 104.272C75.1389 103.736 75.0992 103.123 74.9168 102.433C74.7344 101.743 74.4663 101.191 74.1124 100.776C73.756 100.362 73.3508 100.084 72.8971 99.9436C72.4408 99.8028 71.9712 99.7962 71.4886 99.9238C71.0058 100.051 70.602 100.289 70.2772 100.635C69.9497 100.983 69.7346 101.424 69.6317 101.96C69.5262 102.496 69.5647 103.109 69.747 103.799Z" fill="black"/>
<path d="M66.6815 100.352L66.7195 101.075L62.6276 107.934L67.115 107.699L67.1613 108.584L61.4837 108.882L61.4458 108.158L65.5376 101.298L61.0503 101.534L61.0039 100.649L66.6815 100.352Z" fill="black"/>
<path d="M50.5688 103.771C50.7019 102.911 50.972 102.192 51.3793 101.615C51.7866 101.036 52.2871 100.62 52.8809 100.364C53.4745 100.108 54.1189 100.034 54.814 100.142C55.509 100.249 56.1007 100.515 56.5893 100.938C57.0779 101.362 57.429 101.91 57.6424 102.584C57.8559 103.258 57.8961 104.025 57.763 104.884C57.6299 105.744 57.3598 106.463 56.9525 107.04C56.5452 107.619 56.0447 108.035 55.451 108.291C54.8573 108.547 54.213 108.621 53.5179 108.513C52.8228 108.406 52.2311 108.14 51.7425 107.717C51.2539 107.294 50.9028 106.745 50.6894 106.071C50.4759 105.397 50.4358 104.63 50.5688 103.771ZM51.5238 103.918C51.4146 104.624 51.4404 105.237 51.6014 105.76C51.7597 106.282 52.0198 106.698 52.3818 107.009C52.741 107.32 53.1674 107.514 53.6608 107.59C54.1542 107.667 54.6205 107.611 55.0597 107.424C55.4962 107.236 55.8701 106.917 56.1813 106.469C56.4899 106.02 56.6988 105.442 56.8081 104.737C56.9173 104.031 56.8927 103.418 56.7345 102.896C56.5736 102.374 56.3134 101.957 55.9541 101.646C55.5921 101.335 55.1644 101.141 54.671 101.065C54.1776 100.988 53.7126 101.044 53.2762 101.232C52.837 101.419 52.4631 101.738 52.1545 102.186C51.8433 102.635 51.633 103.213 51.5238 103.918Z" fill="black"/>
<path d="M46.6145 107.037L46.7653 99.677L46.6748 99.643L41.941 105.279L40.9609 104.912L46.6967 98.2578L47.6616 98.6206L47.5945 107.404L46.6145 107.037Z" fill="black"/>
<path d="M36.7773 102.892L41.1959 95.9297L42.039 96.4645L37.6205 103.427L36.7773 102.892Z" fill="black"/>
<path d="M30.2116 97.5465L29.594 98.1815L25.1602 93.8696L25.7777 93.2346L27.6367 95.0426L32.7681 89.7656L33.484 90.4617L28.3525 95.739L30.2116 97.5465Z" fill="black"/>
<path d="M29.0686 86.109L22.2322 90.7202L19.4492 86.5943L20.1836 86.099L22.4082 89.397L24.7182 87.8389L22.6377 84.7545L23.3721 84.2592L25.4525 87.3436L27.7758 85.7765L25.5153 82.425L26.2496 81.9297L29.0686 86.109Z" fill="black"/>
<path d="M12.0352 66.4808L20.1459 64.9922L20.3204 65.9427L14.7634 71.5312L14.7779 71.6104L21.1461 70.4416L21.3264 71.4238L13.2156 72.9124L13.0412 71.9619L18.6112 66.3546L18.5966 66.2754L12.2125 67.4472L12.0352 66.4808Z" fill="black"/>
<path d="M19.8712 62.8738L19.8456 63.9204L11.6758 60.6919L11.701 59.6614L20.0188 56.8359L19.9932 57.8825L12.9934 60.1764L12.9918 60.2407L19.8712 62.8738ZM16.6604 62.4087L16.7635 58.1902L17.649 58.2119L17.546 62.4303L16.6604 62.4087Z" fill="black"/>
<path d="M15.1195 49.0679C14.7112 49.0217 14.3581 49.1401 14.0601 49.4232C13.7621 49.7062 13.5561 50.0908 13.4421 50.5769C13.3587 50.9323 13.3433 51.2568 13.3958 51.5503C13.4489 51.8413 13.5586 52.0848 13.7249 52.2809C13.8917 52.4745 14.1033 52.6013 14.3593 52.6613C14.5736 52.7116 14.7699 52.7039 14.9479 52.6381C15.124 52.5691 15.282 52.4656 15.422 52.3275C15.5593 52.1887 15.6814 52.0382 15.7885 51.8758C15.8929 51.7128 15.9822 51.5614 16.0563 51.4217L16.4671 50.6577C16.5709 50.4616 16.7013 50.2467 16.8581 50.0133C17.0155 49.7773 17.2053 49.5613 17.4278 49.3652C17.6482 49.166 17.9059 49.0197 18.2008 48.9262C18.4957 48.8327 18.8313 48.83 19.2076 48.9184C19.6414 49.02 20.0068 49.2257 20.3036 49.5352C20.6011 49.8421 20.8022 50.2367 20.9069 50.7189C21.0123 51.1986 20.9926 51.7468 20.8479 52.3635C20.713 52.9385 20.5035 53.4146 20.2193 53.7918C19.9357 54.1664 19.5997 54.4351 19.2114 54.5976C18.8237 54.7576 18.4067 54.8018 17.9603 54.7302L18.1957 53.7266C18.5049 53.7716 18.7797 53.7285 19.02 53.5973C19.2583 53.463 19.458 53.2699 19.619 53.0182C19.7781 52.7633 19.895 52.4764 19.9698 52.1575C20.0569 51.7865 20.0749 51.4391 20.0239 51.1156C19.9703 50.7915 19.8553 50.5178 19.6789 50.2944C19.4999 50.0705 19.2639 49.9241 18.9712 49.8555C18.7047 49.793 18.4703 49.8166 18.2681 49.9263C18.0659 50.0361 17.884 50.2002 17.7225 50.4187C17.561 50.6372 17.4079 50.8784 17.2633 51.1423L16.7493 52.0639C16.4219 52.6489 16.048 53.085 15.6277 53.3725C15.2074 53.6599 14.7267 53.7401 14.1858 53.6132C13.7362 53.5078 13.3727 53.2943 13.0952 52.9729C12.8157 52.6481 12.6316 52.2575 12.5429 51.8011C12.4522 51.3414 12.4669 50.8555 12.587 50.3433C12.7084 49.8257 12.909 49.3876 13.189 49.0286C13.4663 48.6691 13.792 48.4091 14.166 48.2486C14.5407 48.0857 14.932 48.0451 15.3401 48.127L15.1195 49.0679Z" fill="black"/>
<path fill-rule="evenodd" clip-rule="evenodd" d="M48.8887 44.0523C49.2495 43.6919 49.6829 43.4124 50.1599 43.2322C50.637 43.052 51.1469 42.9752 51.6559 43.007C52.1649 43.0388 52.6613 43.1784 53.1122 43.4166C53.5632 43.6547 53.9584 43.986 54.2716 44.3885L57.9737 49.1448C58.6522 50.0173 58.8915 51.1538 58.6234 52.2263L57.4952 56.7434C57.4373 56.9774 57.4406 57.2224 57.5049 57.4547C57.5692 57.687 57.6923 57.8988 57.8623 58.0697L62.9297 63.1375C63.1008 63.3078 63.3129 63.4311 63.5456 63.4954C63.7783 63.5597 64.0237 63.5629 64.2579 63.5046L68.7726 62.3764C69.3019 62.2448 69.8541 62.2349 70.3878 62.3474C70.9215 62.46 71.4227 62.692 71.8539 63.0261L76.6099 66.7264C78.3196 68.0568 78.4764 70.5834 76.946 72.1118L74.8135 74.2445C73.2873 75.7709 71.0062 76.4412 68.8798 75.6925C63.4364 73.7796 58.4945 70.6634 54.4222 66.5758C50.3352 62.5037 47.2192 57.5622 45.3062 52.1191C44.5596 49.9946 45.2299 47.7113 46.7561 46.185L48.8887 44.0523Z" fill="black"/>
</g>
<defs>
<clipPath id="clip0_198_1954">
<rect width="120" height="120" fill="white"/>
</clipPath>
</defs>
</svg>
