<svg width="1284" height="227" viewBox="0 0 1284 227" fill="none" xmlns="http://www.w3.org/2000/svg">
<path d="M0.826172 224V2.28125H61.7988C77.7559 2.28125 89.7656 6.73242 97.8281 15.6348C105.891 24.4531 109.922 37.3867 109.922 54.4355V158.24C109.922 179.236 106.227 195.445 98.8359 206.867C91.5293 218.289 78.6797 224 60.2871 224H0.826172ZM45.4219 184.821H53.1064C61.2529 184.821 65.3262 180.874 65.3262 172.979V58.5928C65.3262 51.2021 64.3184 46.457 62.3027 44.3574C60.3711 42.1738 56.3818 41.082 50.335 41.082H45.4219V184.821ZM175.813 226.016C158.092 226.016 144.528 220.683 135.122 210.017C125.8 199.267 121.139 183.771 121.139 163.531V58.2148C121.139 39.2344 125.758 24.8311 134.996 15.0049C144.319 5.17871 157.924 0.265625 175.813 0.265625C193.701 0.265625 207.265 5.17871 216.503 15.0049C225.825 24.8311 230.486 39.2344 230.486 58.2148V163.531C230.486 183.771 225.783 199.267 216.377 210.017C207.055 220.683 193.533 226.016 175.813 226.016ZM176.191 185.199C182.909 185.199 186.269 178.69 186.269 165.673V57.459C186.269 46.541 182.993 41.082 176.443 41.082C169.052 41.082 165.357 46.667 165.357 57.8369V165.925C165.357 172.812 166.196 177.767 167.876 180.79C169.556 183.729 172.327 185.199 176.191 185.199ZM295.873 226.016C275.633 226.016 261.02 220.977 252.034 210.898C243.131 200.82 238.68 184.779 238.68 162.775V141.107H282.52V168.822C282.52 173.945 283.276 177.977 284.787 180.916C286.383 183.771 289.113 185.199 292.976 185.199C297.007 185.199 299.779 184.023 301.29 181.672C302.886 179.32 303.684 175.457 303.684 170.082C303.684 163.279 303.012 157.61 301.668 153.075C300.325 148.456 297.973 144.089 294.614 139.974C291.338 135.774 286.761 130.903 280.882 125.36L260.978 106.464C246.113 92.4385 238.68 76.3975 238.68 58.3408C238.68 39.4443 243.047 25.041 251.782 15.1309C260.6 5.2207 273.324 0.265625 289.952 0.265625C310.277 0.265625 324.68 5.68262 333.162 16.5166C341.729 27.3506 346.012 43.8115 346.012 65.8994H300.912V50.6562C300.912 47.6328 300.031 45.2812 298.267 43.6016C296.587 41.9219 294.278 41.082 291.338 41.082C287.811 41.082 285.207 42.0898 283.528 44.1055C281.932 46.0371 281.134 48.5566 281.134 51.6641C281.134 54.7715 281.974 58.1309 283.654 61.7422C285.333 65.3535 288.651 69.5107 293.606 74.2139L319.179 98.7793C324.302 103.65 329.005 108.815 333.288 114.274C337.572 119.649 341.015 125.948 343.618 133.171C346.222 140.31 347.524 149.044 347.524 159.374C347.524 180.202 343.66 196.537 335.934 208.379C328.291 220.137 314.938 226.016 295.873 226.016ZM376.251 224V44.8613H349.922V2.28125H446.924V44.8613H420.595V224H376.251ZM444.788 224L466.204 2.28125H541.412L562.45 224H520.5L517.35 188.223H490.643L487.872 224H444.788ZM493.793 152.823H513.949L504.249 40.0742H502.233L493.793 152.823ZM585.761 224L558.424 2.15527H600.626L616.877 153.075L631.364 2.15527H673.566L646.229 224H585.761ZM670.044 224L691.46 2.28125H766.668L787.706 224H745.756L742.606 188.223H715.899L713.128 224H670.044ZM719.049 152.823H739.205L729.505 40.0742H727.489L719.049 152.823ZM851.46 224V2.28125H895.804V186.207H941.407V224H851.46ZM948.845 224V2.28125H1037.53V45.1133H993.945V88.3232H1035.77V130.021H993.945V180.79H1040.43V224H948.845ZM1050.01 224V2.28125H1110.98C1126.94 2.28125 1138.95 6.73242 1147.01 15.6348C1155.07 24.4531 1159.11 37.3867 1159.11 54.4355V158.24C1159.11 179.236 1155.41 195.445 1148.02 206.867C1140.71 218.289 1127.86 224 1109.47 224H1050.01ZM1094.61 184.821H1102.29C1110.44 184.821 1114.51 180.874 1114.51 172.979V58.5928C1114.51 51.2021 1113.5 46.457 1111.49 44.3574C1109.55 42.1738 1105.57 41.082 1099.52 41.082H1094.61V184.821ZM1166.04 224L1187.45 2.28125H1262.66L1283.7 224H1241.75L1238.6 188.223H1211.89L1209.12 224H1166.04ZM1215.04 152.823H1235.2L1225.5 40.0742H1223.48L1215.04 152.823Z" fill="black"/>
</svg>
