<svg width="159" height="42" viewBox="0 0 159 42" fill="none" xmlns="http://www.w3.org/2000/svg">
<path d="M8.904 17H1.152V0.92H8.904C14.064 0.92 17.328 3.92 17.328 8.96C17.328 14 14.064 17 8.904 17ZM8.904 4.16H4.752V13.76H8.904C12.168 13.76 13.488 12.824 13.488 8.96C13.488 5.096 12.168 4.16 8.904 4.16ZM27.4097 17.24C22.0817 17.24 18.7697 13.976 18.7697 8.96C18.7697 3.944 22.0817 0.68 27.4097 0.68C32.8577 0.68 36.1457 3.944 36.1457 8.96C36.1457 13.976 32.8577 17.24 27.4097 17.24ZM27.4097 13.784C30.9377 13.784 32.3057 12.536 32.3057 8.96C32.3057 5.384 30.9377 4.136 27.4097 4.136C23.8817 4.136 22.5857 5.384 22.5857 8.96C22.5857 12.536 23.8817 13.784 27.4097 13.784ZM45.2516 17.24C40.3796 17.24 37.6436 15.32 37.6436 11.576V11.432H41.2436V11.864C41.2436 13.352 41.9876 13.952 45.2516 13.952C48.1316 13.952 48.8036 13.52 48.8036 12.44C48.8036 11.456 48.2516 11.096 46.5956 10.808L42.0836 10.16C39.2036 9.704 37.4996 8.264 37.4996 5.648C37.4996 3.224 39.4676 0.68 44.8676 0.68C49.8116 0.68 52.1156 2.96 52.1156 6.344V6.488H48.4916V6.152C48.4916 4.616 47.6996 3.968 44.5076 3.968C41.9156 3.968 41.1236 4.472 41.1236 5.504C41.1236 6.44 41.6516 6.776 42.9956 7.016L47.5076 7.736C51.1076 8.312 52.4036 10.064 52.4036 12.272C52.4036 14.888 50.3636 17.24 45.2516 17.24ZM63.0617 17H59.4617V4.16H53.4857V0.92H69.0377V4.16H63.0617V17ZM73.5204 17H69.4884L76.5204 0.92H81.6564L88.7364 17H84.6084L83.0964 13.448H75.0564L73.5204 17ZM77.9604 6.704L76.4484 10.208H81.7044L80.1924 6.704L79.2084 4.208H78.9444L77.9604 6.704ZM100.472 17H95.3362L88.6642 0.92H93.0082L97.8322 13.352H98.0722L102.824 0.92H107.144L100.472 17ZM111.102 17H107.07L114.102 0.92H119.238L126.318 17H122.19L120.678 13.448H112.638L111.102 17ZM115.542 6.704L114.03 10.208H119.286L117.774 6.704L116.79 4.208H116.526L115.542 6.704ZM14.136 36H0.96V19.92H4.56V32.76H14.136V36ZM29.433 36H15.825V19.92H29.433V23.16H19.425V26.304H29.073V29.52H19.425V32.76H29.433V36ZM39.2434 36H31.4914V19.92H39.2434C44.4034 19.92 47.6674 22.92 47.6674 27.96C47.6674 33 44.4034 36 39.2434 36ZM39.2434 23.16H35.0914V32.76H39.2434C42.5074 32.76 43.8274 31.824 43.8274 27.96C43.8274 24.096 42.5074 23.16 39.2434 23.16ZM52.4211 36H48.3891L55.4211 19.92H60.5571L67.6371 36H63.5091L61.9971 32.448H53.9571L52.4211 36ZM56.8611 25.704L55.3491 29.208H60.6051L59.0931 25.704L58.1091 23.208H57.8451L56.8611 25.704Z" fill="white"/>
<path d="M85 23.0144L77.4755 19L70 22.9856L77.5245 27L85 23.0144Z" stroke="white" stroke-width="2" stroke-linecap="round" stroke-linejoin="round"/>
<path d="M77.5245 27.3528V36L85 31.6785V23.0313L77.5245 27.3528Z" fill="#00EDAA"/>
<path d="M77.5245 27.3528L70 23V31.6472L77.5245 36M77.5245 27.3528V36M77.5245 27.3528L85 23.0313V31.6785L77.5245 36" stroke="white" stroke-width="2" stroke-linecap="round" stroke-linejoin="round"/>
<path d="M105 23.0144L97.4755 19L90 22.9856L97.5245 27L105 23.0144Z" stroke="white" stroke-width="2" stroke-linecap="round" stroke-linejoin="round"/>
<path d="M97.5245 27.3528V36L105 31.6785V23.0313L97.5245 27.3528Z" fill="#00EDAA"/>
<path d="M97.5245 27.3528L90 23V31.6472L97.5245 36M97.5245 27.3528V36M97.5245 27.3528L105 23.0313V31.6785L97.5245 36" stroke="white" stroke-width="2" stroke-linecap="round" stroke-linejoin="round"/>
<path d="M125 22.0144L117.476 18L110 21.9856L117.524 26L125 22.0144Z" stroke="white" stroke-width="2" stroke-linecap="round" stroke-linejoin="round"/>
<path d="M117.524 26.3528V35L125 30.6785V22.0313L117.524 26.3528Z" fill="#00EDAA"/>
<path d="M117.524 26.3528L110 22V30.6472L117.524 35M117.524 26.3528V35M117.524 26.3528L125 22.0313V30.6785L117.524 35" stroke="white" stroke-width="2" stroke-linecap="round" stroke-linejoin="round"/>
</svg>
