<svg width="1599" height="287" viewBox="0 0 1599 287" fill="none" xmlns="http://www.w3.org/2000/svg">
<path d="M28.2344 284L0.897461 62.1553H43.0996L59.3506 213.075L73.8379 62.1553H116.04L88.7031 284H28.2344ZM123.856 284V62.2812H191.883C203.221 62.2812 211.787 64.8848 217.582 70.0918C223.377 75.2148 227.24 82.4375 229.172 91.7598C231.188 100.998 232.195 111.874 232.195 124.388C232.195 136.481 230.642 146.14 227.534 153.362C224.511 160.585 218.758 165.582 210.276 168.354C217.246 169.781 222.117 173.267 224.889 178.81C227.744 184.269 229.172 191.365 229.172 200.1V284H185.458V197.202C185.458 190.735 184.114 186.746 181.427 185.234C178.823 183.639 174.582 182.841 168.703 182.841V284H123.856ZM168.955 144.418H179.663C185.794 144.418 188.86 137.741 188.86 124.388C188.86 115.737 188.188 110.068 186.844 107.381C185.5 104.693 182.981 103.35 179.285 103.35H168.955V144.418ZM241.649 284V62.2812H287.252L307.66 168.479V62.2812H350.492V284H307.157L284.985 173.141V284H241.649ZM414.116 286.016C404.122 286.016 395.009 284.084 386.779 280.221C378.548 276.357 371.998 270.646 367.126 263.088C362.339 255.445 359.946 246.081 359.946 234.995V179.439H403.786V232.35C403.786 236.213 404.541 239.32 406.053 241.672C407.649 244.023 410.168 245.199 413.612 245.199C420.247 245.199 423.564 241.126 423.564 232.979V62.2812H468.286V228.57C468.286 240.328 465.976 250.532 461.357 259.183C456.738 267.749 450.355 274.384 442.208 279.087C434.062 283.706 424.698 286.016 414.116 286.016ZM474.212 284L495.628 62.2812H570.836L591.874 284H549.923L546.774 248.223H520.067L517.296 284H474.212ZM523.216 212.823H543.373L533.672 100.074H531.657L523.216 212.823ZM651.97 286.016C635.929 286.016 622.995 281.019 613.169 271.024C603.427 261.03 598.555 247.047 598.555 229.074V126.781C598.555 105.281 602.797 88.8203 611.279 77.3984C619.846 65.9766 633.745 60.2656 652.977 60.2656C663.475 60.2656 672.798 62.1973 680.944 66.0605C689.175 69.9238 695.641 75.7188 700.345 83.4453C705.048 91.0879 707.399 100.746 707.399 112.42V150.717H663.307V117.963C663.307 111.328 662.468 106.877 660.788 104.609C659.108 102.258 656.505 101.082 652.977 101.082C648.862 101.082 646.091 102.594 644.663 105.617C643.235 108.557 642.521 112.504 642.521 117.459V228.444C642.521 234.575 643.403 238.9 645.167 241.42C647.014 243.939 649.618 245.199 652.977 245.199C656.757 245.199 659.402 243.646 660.914 240.538C662.51 237.431 663.307 233.399 663.307 228.444V188.51H707.903V230.46C707.903 249.944 702.99 264.096 693.164 272.914C683.338 281.648 669.606 286.016 651.97 286.016ZM627.278 50.8174L596.918 0.0488281H642.143L652.977 35.9521L663.811 0.0488281H709.037L678.677 50.8174H627.278ZM717.608 284V62.2812H761.448V151.095L782.108 62.2812H826.704L801.887 163.818L831.869 284H785.888L761.7 176.668V284H717.608ZM828.347 284L849.763 62.2812H924.971L946.009 284H904.059L900.909 248.223H874.202L871.431 284H828.347ZM877.352 212.823H897.508L887.808 100.074H885.792L877.352 212.823ZM1009.76 284V62.2812H1069.85C1085.98 62.2812 1097.69 66.2285 1105 74.123C1112.39 81.9336 1116.09 94.8672 1116.09 112.924V122.624C1116.09 133.038 1114.2 141.479 1110.42 147.945C1106.72 154.412 1101.05 158.653 1093.41 160.669C1103.41 163.188 1110.08 169.109 1113.44 178.432C1116.89 187.67 1118.61 198.966 1118.61 212.319C1118.61 226.681 1117.26 239.236 1114.58 249.986C1111.89 260.736 1107.02 269.093 1099.96 275.056C1092.91 281.019 1082.87 284 1069.85 284H1009.76ZM1053.1 145.804H1062.17C1066.28 145.804 1068.93 144.208 1070.11 141.017C1071.28 137.825 1071.87 134.004 1071.87 129.553V107.255C1071.87 100.116 1068.72 96.5469 1062.42 96.5469H1053.1V145.804ZM1057.51 244.947C1069.01 244.947 1074.77 239.488 1074.77 228.57V200.855C1074.77 194.557 1073.8 189.602 1071.87 185.99C1070.02 182.295 1066.49 180.447 1061.29 180.447H1053.1V244.695C1054.95 244.863 1056.42 244.947 1057.51 244.947ZM1122.01 284L1143.43 62.2812H1218.64L1239.68 284H1197.73L1194.58 248.223H1167.87L1165.1 284H1122.01ZM1171.02 212.823H1191.17L1181.47 100.074H1179.46L1171.02 212.823ZM1248.12 284V62.2812H1293.72L1314.13 168.479V62.2812H1356.96V284H1313.63L1291.46 173.141V284H1248.12ZM1420.59 286.016C1410.59 286.016 1401.48 284.084 1393.25 280.221C1385.02 276.357 1378.47 270.646 1373.6 263.088C1368.81 255.445 1366.42 246.081 1366.42 234.995V179.439H1410.26V232.35C1410.26 236.213 1411.01 239.32 1412.53 241.672C1414.12 244.023 1416.64 245.199 1420.08 245.199C1426.72 245.199 1430.04 241.126 1430.04 232.979V62.2812H1474.76V228.57C1474.76 240.328 1472.45 250.532 1467.83 259.183C1463.21 267.749 1456.83 274.384 1448.68 279.087C1440.53 283.706 1431.17 286.016 1420.59 286.016ZM1480.68 284L1502.1 62.2812H1577.31L1598.35 284H1556.4L1553.25 248.223H1526.54L1523.77 284H1480.68ZM1529.69 212.823H1549.84L1540.14 100.074H1538.13L1529.69 212.823Z" fill="black"/>
</svg>
